# xmcd
#
# Track frame offsets: 
#        150
#        14987
#        33890
#        50942
#        68905
#        83982
#        99442
#        114640
#        129782
#        145192
#        157877
#        171325
#
# Disc length: 2615 seconds
#
# Revision: 1
# Processed by: cddbd v1.5.2PL0 Copyright (c) Steve Scherf et al.
# Submitted via: ExactAudioCopy v0.99pb5
#
DISCID=a30a350c
DTITLE=Dr.Feelgood - On The Road Again
DYEAR=1996
DGENRE=Rhythm and Blues
TTITLE0=Wine Women and Whisky
TTITLE1=Sweet Louise
TTITLE2=World Keeps Turning
TTITLE3=On The Road Again
TTITLE4=Instinct To Survive
TTITLE5=Mellow Down Easy
TTITLE6=Going Out West
TTITLE7=Cheap At Half The Price
TTITLE8=Second Opinion
TTITLE9=What Am I To Believe
TTITLE10=Repo Man
TTITLE11=You Got Me
EXTD=
EXTT0=
EXTT1=
EXTT2=
EXTT3=
EXTT4=
EXTT5=
EXTT6=
EXTT7=
EXTT8=
EXTT9=
EXTT10=
EXTT11=
PLAYORDER=
